<?xml version="1.0" encoding="UTF-8" standalone="no"?>
<!DOCTYPE svg PUBLIC "-//W3C//DTD SVG 1.1//EN"
 "http://www.w3.org/Graphics/SVG/1.1/DTD/svg11.dtd">
<!-- Generated by graphviz version 2.47.0 (20210316.0004)
 -->
<!-- Title: dependencies Pages: 1 -->
<svg width="2889pt" height="284pt"
 viewBox="0.00 0.00 2889.00 284.00" xmlns="http://www.w3.org/2000/svg" xmlns:xlink="http://www.w3.org/1999/xlink">
<g id="graph0" class="graph" transform="scale(1 1) rotate(0) translate(4 280)">
<title>dependencies</title>
<polygon fill="white" stroke="transparent" points="-4,4 -4,-280 2885,-280 2885,4 -4,4"/>
<text text-anchor="start" x="1419.51" y="-42.4" font-family="Times-12" font-weight="bold" font-size="14.00">Legend</text>
<polygon fill="#ffffb3" stroke="transparent" points="1206.5,-10 1206.5,-30 1226.5,-30 1226.5,-10 1206.5,-10"/>
<text text-anchor="start" x="1230.13" y="-15.4" font-family="Times-12" font-size="14.00"> &#160;Declarations</text>
<polygon fill="#8dd3c7" stroke="transparent" points="1319.5,-10 1319.5,-30 1339.5,-30 1339.5,-10 1319.5,-10"/>
<text text-anchor="start" x="1343.23" y="-15.4" font-family="Times-12" font-size="14.00"> &#160;Module</text>
<polygon fill="#80b1d3" stroke="transparent" points="1405.5,-10 1405.5,-30 1425.5,-30 1425.5,-10 1405.5,-10"/>
<text text-anchor="start" x="1429.28" y="-15.4" font-family="Times-12" font-size="14.00"> &#160;Bootstrap</text>
<polygon fill="#fdb462" stroke="transparent" points="1502.5,-10 1502.5,-30 1522.5,-30 1522.5,-10 1502.5,-10"/>
<text text-anchor="start" x="1526.17" y="-15.4" font-family="Times-12" font-size="14.00"> &#160;Providers</text>
<polygon fill="#fb8072" stroke="transparent" points="1598.5,-10 1598.5,-30 1618.5,-30 1618.5,-10 1598.5,-10"/>
<text text-anchor="start" x="1622.23" y="-15.4" font-family="Times-12" font-size="14.00"> &#160;Exports</text>
<g id="clust1" class="cluster">
<title>cluster_AngularCesiumWidgetsModule</title>
<polygon fill="none" stroke="black" stroke-dasharray="1,5" points="8,-70 8,-268 2873,-268 2873,-70 8,-70"/>
</g>
<g id="clust2" class="cluster">
<title>cluster_AngularCesiumWidgetsModule_declarations</title>
<polygon fill="none" stroke="black" points="672,-78 672,-130 2865,-130 2865,-78 672,-78"/>
</g>
<g id="clust15" class="cluster">
<title>cluster_AngularCesiumWidgetsModule_imports</title>
<polygon fill="none" stroke="black" points="500,-78 500,-130 664,-130 664,-78 500,-78"/>
</g>
<g id="clust16" class="cluster">
<title>cluster_AngularCesiumWidgetsModule_exports</title>
<polygon fill="none" stroke="black" points="466,-208 466,-260 2545,-260 2545,-208 466,-208"/>
</g>
<g id="clust18" class="cluster">
<title>cluster_AngularCesiumWidgetsModule_providers</title>
<polygon fill="none" stroke="black" points="16,-78 16,-130 492,-130 492,-78 16,-78"/>
</g>
<!-- AcToolbarButtonComponent -->
<g id="node1" class="node">
<title>AcToolbarButtonComponent</title>
<polygon fill="#ffffb3" stroke="black" points="2857.09,-122 2676.91,-122 2676.91,-86 2857.09,-86 2857.09,-122"/>
<text text-anchor="middle" x="2767" y="-99.8" font-family="Times,serif" font-size="14.00">AcToolbarButtonComponent</text>
</g>
<!-- AngularCesiumWidgetsModule -->
<g id="node13" class="node">
<title>AngularCesiumWidgetsModule</title>
<polygon fill="#8dd3c7" stroke="black" points="1625.35,-187 1622.35,-191 1601.35,-191 1598.35,-187 1430.65,-187 1430.65,-151 1625.35,-151 1625.35,-187"/>
<text text-anchor="middle" x="1528" y="-164.8" font-family="Times,serif" font-size="14.00">AngularCesiumWidgetsModule</text>
</g>
<!-- AcToolbarButtonComponent&#45;&gt;AngularCesiumWidgetsModule -->
<g id="edge1" class="edge">
<title>AcToolbarButtonComponent&#45;&gt;AngularCesiumWidgetsModule</title>
<path fill="none" stroke="black" d="M2767,-122.31C2767,-142.15 2767,-171 2767,-171 2767,-171 1635.48,-171 1635.48,-171"/>
<polygon fill="black" stroke="black" points="1635.48,-167.5 1625.48,-171 1635.48,-174.5 1635.48,-167.5"/>
</g>
<!-- AcToolbarComponent -->
<g id="node2" class="node">
<title>AcToolbarComponent</title>
<polygon fill="#ffffb3" stroke="black" points="2658.97,-122 2517.03,-122 2517.03,-86 2658.97,-86 2658.97,-122"/>
<text text-anchor="middle" x="2588" y="-99.8" font-family="Times,serif" font-size="14.00">AcToolbarComponent</text>
</g>
<!-- AcToolbarComponent&#45;&gt;AngularCesiumWidgetsModule -->
<g id="edge2" class="edge">
<title>AcToolbarComponent&#45;&gt;AngularCesiumWidgetsModule</title>
<path fill="none" stroke="black" d="M2526.9,-122.17C2526.9,-141.09 2526.9,-168 2526.9,-168 2526.9,-168 1635.6,-168 1635.6,-168"/>
<polygon fill="black" stroke="black" points="1635.6,-164.5 1625.6,-168 1635.6,-171.5 1635.6,-164.5"/>
</g>
<!-- CirclesEditorComponent -->
<g id="node3" class="node">
<title>CirclesEditorComponent</title>
<polygon fill="#ffffb3" stroke="black" points="2498.98,-122 2343.02,-122 2343.02,-86 2498.98,-86 2498.98,-122"/>
<text text-anchor="middle" x="2421" y="-99.8" font-family="Times,serif" font-size="14.00">CirclesEditorComponent</text>
</g>
<!-- CirclesEditorComponent&#45;&gt;AngularCesiumWidgetsModule -->
<g id="edge3" class="edge">
<title>CirclesEditorComponent&#45;&gt;AngularCesiumWidgetsModule</title>
<path fill="none" stroke="black" d="M2348.11,-122.3C2348.11,-140.27 2348.11,-165 2348.11,-165 2348.11,-165 1635.7,-165 1635.7,-165"/>
<polygon fill="black" stroke="black" points="1635.7,-161.5 1625.7,-165 1635.7,-168.5 1635.7,-161.5"/>
</g>
<!-- DragIconComponent -->
<g id="node4" class="node">
<title>DragIconComponent</title>
<polygon fill="#ffffb3" stroke="black" points="2325.19,-122 2190.81,-122 2190.81,-86 2325.19,-86 2325.19,-122"/>
<text text-anchor="middle" x="2258" y="-99.8" font-family="Times,serif" font-size="14.00">DragIconComponent</text>
</g>
<!-- DragIconComponent&#45;&gt;AngularCesiumWidgetsModule -->
<g id="edge4" class="edge">
<title>DragIconComponent&#45;&gt;AngularCesiumWidgetsModule</title>
<path fill="none" stroke="black" d="M2280.36,-122.02C2280.36,-139.37 2280.36,-163 2280.36,-163 2280.36,-163 1635.59,-163 1635.59,-163"/>
<polygon fill="black" stroke="black" points="1635.59,-159.5 1625.59,-163 1635.59,-166.5 1635.59,-159.5"/>
</g>
<!-- DraggableToMapDirective -->
<g id="node5" class="node">
<title>DraggableToMapDirective</title>
<polygon fill="#ffffb3" stroke="black" points="2172.6,-122 2005.4,-122 2005.4,-86 2172.6,-86 2172.6,-122"/>
<text text-anchor="middle" x="2089" y="-99.8" font-family="Times,serif" font-size="14.00">DraggableToMapDirective</text>
</g>
<!-- DraggableToMapDirective&#45;&gt;AngularCesiumWidgetsModule -->
<g id="edge5" class="edge">
<title>DraggableToMapDirective&#45;&gt;AngularCesiumWidgetsModule</title>
<path fill="none" stroke="black" d="M2008.73,-122.03C2008.73,-138.4 2008.73,-160 2008.73,-160 2008.73,-160 1635.57,-160 1635.57,-160"/>
<polygon fill="black" stroke="black" points="1635.57,-156.5 1625.57,-160 1635.57,-163.5 1635.57,-156.5"/>
</g>
<!-- EllipsesEditorComponent -->
<g id="node6" class="node">
<title>EllipsesEditorComponent</title>
<polygon fill="#ffffb3" stroke="black" points="1987.16,-122 1826.84,-122 1826.84,-86 1987.16,-86 1987.16,-122"/>
<text text-anchor="middle" x="1907" y="-99.8" font-family="Times,serif" font-size="14.00">EllipsesEditorComponent</text>
</g>
<!-- EllipsesEditorComponent&#45;&gt;AngularCesiumWidgetsModule -->
<g id="edge6" class="edge">
<title>EllipsesEditorComponent&#45;&gt;AngularCesiumWidgetsModule</title>
<path fill="none" stroke="black" d="M1933.78,-122.24C1933.78,-137.57 1933.78,-157 1933.78,-157 1933.78,-157 1635.45,-157 1635.45,-157"/>
<polygon fill="black" stroke="black" points="1635.45,-153.5 1625.45,-157 1635.45,-160.5 1635.45,-153.5"/>
</g>
<!-- HippodromeEditorComponent -->
<g id="node7" class="node">
<title>HippodromeEditorComponent</title>
<polygon fill="#ffffb3" stroke="black" points="1808.59,-122 1621.41,-122 1621.41,-86 1808.59,-86 1808.59,-122"/>
<text text-anchor="middle" x="1715" y="-99.8" font-family="Times,serif" font-size="14.00">HippodromeEditorComponent</text>
</g>
<!-- HippodromeEditorComponent&#45;&gt;AngularCesiumWidgetsModule -->
<g id="edge7" class="edge">
<title>HippodromeEditorComponent&#45;&gt;AngularCesiumWidgetsModule</title>
<path fill="none" stroke="black" d="M1633.17,-122.05C1633.17,-136.37 1633.17,-154 1633.17,-154 1633.17,-154 1632.42,-154 1632.42,-154"/>
<polygon fill="black" stroke="black" points="1635.61,-150.5 1625.61,-154 1635.61,-157.5 1635.61,-150.5"/>
</g>
<!-- PointsEditorComponent -->
<g id="node8" class="node">
<title>PointsEditorComponent</title>
<polygon fill="#ffffb3" stroke="black" points="1603.84,-122 1452.16,-122 1452.16,-86 1603.84,-86 1603.84,-122"/>
<text text-anchor="middle" x="1528" y="-99.8" font-family="Times,serif" font-size="14.00">PointsEditorComponent</text>
</g>
<!-- PointsEditorComponent&#45;&gt;AngularCesiumWidgetsModule -->
<g id="edge8" class="edge">
<title>PointsEditorComponent&#45;&gt;AngularCesiumWidgetsModule</title>
<path fill="none" stroke="black" d="M1528,-122.11C1528,-122.11 1528,-140.99 1528,-140.99"/>
<polygon fill="black" stroke="black" points="1524.5,-140.99 1528,-150.99 1531.5,-140.99 1524.5,-140.99"/>
</g>
<!-- PolygonsEditorComponent -->
<g id="node9" class="node">
<title>PolygonsEditorComponent</title>
<polygon fill="#ffffb3" stroke="black" points="1434.45,-122 1265.55,-122 1265.55,-86 1434.45,-86 1434.45,-122"/>
<text text-anchor="middle" x="1350" y="-99.8" font-family="Times,serif" font-size="14.00">PolygonsEditorComponent</text>
</g>
<!-- PolygonsEditorComponent&#45;&gt;AngularCesiumWidgetsModule -->
<g id="edge9" class="edge">
<title>PolygonsEditorComponent&#45;&gt;AngularCesiumWidgetsModule</title>
<path fill="none" stroke="black" d="M1422.5,-122.38C1422.5,-146.28 1422.5,-185 1422.5,-185 1422.5,-185 1423.29,-185 1423.29,-185"/>
<polygon fill="black" stroke="black" points="1420.43,-188.5 1430.43,-185 1420.43,-181.5 1420.43,-188.5"/>
</g>
<!-- PolylinesEditorComponent -->
<g id="node10" class="node">
<title>PolylinesEditorComponent</title>
<polygon fill="#ffffb3" stroke="black" points="1248.44,-122 1079.56,-122 1079.56,-86 1248.44,-86 1248.44,-122"/>
<text text-anchor="middle" x="1164" y="-99.8" font-family="Times,serif" font-size="14.00">PolylinesEditorComponent</text>
</g>
<!-- PolylinesEditorComponent&#45;&gt;AngularCesiumWidgetsModule -->
<g id="edge10" class="edge">
<title>PolylinesEditorComponent&#45;&gt;AngularCesiumWidgetsModule</title>
<path fill="none" stroke="black" d="M1187.91,-122.05C1187.91,-136.37 1187.91,-154 1187.91,-154 1187.91,-154 1420.54,-154 1420.54,-154"/>
<polygon fill="black" stroke="black" points="1420.54,-157.5 1430.54,-154 1420.54,-150.5 1420.54,-157.5"/>
</g>
<!-- RangeAndBearingComponent -->
<g id="node11" class="node">
<title>RangeAndBearingComponent</title>
<polygon fill="#ffffb3" stroke="black" points="1061.52,-122 876.48,-122 876.48,-86 1061.52,-86 1061.52,-122"/>
<text text-anchor="middle" x="969" y="-99.8" font-family="Times,serif" font-size="14.00">RangeAndBearingComponent</text>
</g>
<!-- RangeAndBearingComponent&#45;&gt;AngularCesiumWidgetsModule -->
<g id="edge11" class="edge">
<title>RangeAndBearingComponent&#45;&gt;AngularCesiumWidgetsModule</title>
<path fill="none" stroke="black" d="M1056.87,-122.24C1056.87,-137.57 1056.87,-157 1056.87,-157 1056.87,-157 1420.38,-157 1420.38,-157"/>
<polygon fill="black" stroke="black" points="1420.38,-160.5 1430.38,-157 1420.38,-153.5 1420.38,-160.5"/>
</g>
<!-- RectanglesEditorComponent -->
<g id="node12" class="node">
<title>RectanglesEditorComponent</title>
<polygon fill="#ffffb3" stroke="black" points="857.75,-122 680.25,-122 680.25,-86 857.75,-86 857.75,-122"/>
<text text-anchor="middle" x="769" y="-99.8" font-family="Times,serif" font-size="14.00">RectanglesEditorComponent</text>
</g>
<!-- RectanglesEditorComponent&#45;&gt;AngularCesiumWidgetsModule -->
<g id="edge12" class="edge">
<title>RectanglesEditorComponent&#45;&gt;AngularCesiumWidgetsModule</title>
<path fill="none" stroke="black" d="M798.62,-122.03C798.62,-138.4 798.62,-160 798.62,-160 798.62,-160 1420.39,-160 1420.39,-160"/>
<polygon fill="black" stroke="black" points="1420.39,-163.5 1430.39,-160 1420.39,-156.5 1420.39,-163.5"/>
</g>
<!-- AcToolbarButtonComponent  -->
<g id="node15" class="node">
<title>AcToolbarButtonComponent </title>
<polygon fill="#fb8072" stroke="black" points="2536.59,-252 2353.41,-252 2353.41,-216 2536.59,-216 2536.59,-252"/>
<text text-anchor="middle" x="2445" y="-229.8" font-family="Times,serif" font-size="14.00">AcToolbarButtonComponent </text>
</g>
<!-- AngularCesiumWidgetsModule&#45;&gt;AcToolbarButtonComponent  -->
<g id="edge14" class="edge">
<title>AngularCesiumWidgetsModule&#45;&gt;AcToolbarButtonComponent </title>
<path fill="none" stroke="black" stroke-dasharray="5,2" d="M1625.39,-174C1857.89,-174 2426.1,-174 2426.1,-174 2426.1,-174 2426.1,-206 2426.1,-206"/>
<polygon fill="black" stroke="black" points="2422.6,-206 2426.1,-216 2429.6,-206 2422.6,-206"/>
</g>
<!-- AcToolbarComponent  -->
<g id="node16" class="node">
<title>AcToolbarComponent </title>
<polygon fill="#fb8072" stroke="black" points="2334.97,-252 2189.03,-252 2189.03,-216 2334.97,-216 2334.97,-252"/>
<text text-anchor="middle" x="2262" y="-229.8" font-family="Times,serif" font-size="14.00">AcToolbarComponent </text>
</g>
<!-- AngularCesiumWidgetsModule&#45;&gt;AcToolbarComponent  -->
<g id="edge15" class="edge">
<title>AngularCesiumWidgetsModule&#45;&gt;AcToolbarComponent </title>
<path fill="none" stroke="black" stroke-dasharray="5,2" d="M1625.65,-176C1819.77,-176 2235.64,-176 2235.64,-176 2235.64,-176 2235.64,-205.97 2235.64,-205.97"/>
<polygon fill="black" stroke="black" points="2232.14,-205.97 2235.64,-215.97 2239.14,-205.97 2232.14,-205.97"/>
</g>
<!-- CirclesEditorComponent  -->
<g id="node17" class="node">
<title>CirclesEditorComponent </title>
<polygon fill="#fb8072" stroke="black" points="2171.98,-252 2012.02,-252 2012.02,-216 2171.98,-216 2171.98,-252"/>
<text text-anchor="middle" x="2092" y="-229.8" font-family="Times,serif" font-size="14.00">CirclesEditorComponent </text>
</g>
<!-- AngularCesiumWidgetsModule&#45;&gt;CirclesEditorComponent  -->
<g id="edge16" class="edge">
<title>AngularCesiumWidgetsModule&#45;&gt;CirclesEditorComponent </title>
<path fill="none" stroke="black" stroke-dasharray="5,2" d="M1625.6,-179C1787.02,-179 2092,-179 2092,-179 2092,-179 2092,-205.99 2092,-205.99"/>
<polygon fill="black" stroke="black" points="2088.5,-205.99 2092,-215.99 2095.5,-205.99 2088.5,-205.99"/>
</g>
<!-- DraggableToMapDirective  -->
<g id="node18" class="node">
<title>DraggableToMapDirective </title>
<polygon fill="#fb8072" stroke="black" points="1994.6,-252 1823.4,-252 1823.4,-216 1994.6,-216 1994.6,-252"/>
<text text-anchor="middle" x="1909" y="-229.8" font-family="Times,serif" font-size="14.00">DraggableToMapDirective </text>
</g>
<!-- AngularCesiumWidgetsModule&#45;&gt;DraggableToMapDirective  -->
<g id="edge17" class="edge">
<title>AngularCesiumWidgetsModule&#45;&gt;DraggableToMapDirective </title>
<path fill="none" stroke="black" stroke-dasharray="5,2" d="M1625.65,-182C1729.89,-182 1880.22,-182 1880.22,-182 1880.22,-182 1880.22,-205.81 1880.22,-205.81"/>
<polygon fill="black" stroke="black" points="1876.72,-205.81 1880.22,-215.81 1883.72,-205.81 1876.72,-205.81"/>
</g>
<!-- EllipsesEditorComponent  -->
<g id="node19" class="node">
<title>EllipsesEditorComponent </title>
<polygon fill="#fb8072" stroke="black" points="1805.16,-252 1640.84,-252 1640.84,-216 1805.16,-216 1805.16,-252"/>
<text text-anchor="middle" x="1723" y="-229.8" font-family="Times,serif" font-size="14.00">EllipsesEditorComponent </text>
</g>
<!-- AngularCesiumWidgetsModule&#45;&gt;EllipsesEditorComponent  -->
<g id="edge18" class="edge">
<title>AngularCesiumWidgetsModule&#45;&gt;EllipsesEditorComponent </title>
<path fill="none" stroke="black" stroke-dasharray="5,2" d="M1625.5,-185C1674.25,-185 1723,-185 1723,-185 1723,-185 1723,-205.75 1723,-205.75"/>
<polygon fill="black" stroke="black" points="1719.5,-205.75 1723,-215.75 1726.5,-205.75 1719.5,-205.75"/>
</g>
<!-- HippodromeEditorComponent  -->
<g id="node20" class="node">
<title>HippodromeEditorComponent </title>
<polygon fill="#fb8072" stroke="black" points="1623.09,-252 1432.91,-252 1432.91,-216 1623.09,-216 1623.09,-252"/>
<text text-anchor="middle" x="1528" y="-229.8" font-family="Times,serif" font-size="14.00">HippodromeEditorComponent </text>
</g>
<!-- AngularCesiumWidgetsModule&#45;&gt;HippodromeEditorComponent  -->
<g id="edge19" class="edge">
<title>AngularCesiumWidgetsModule&#45;&gt;HippodromeEditorComponent </title>
<path fill="none" stroke="black" stroke-dasharray="5,2" d="M1528,-187.11C1528,-187.11 1528,-205.99 1528,-205.99"/>
<polygon fill="black" stroke="black" points="1524.5,-205.99 1528,-215.99 1531.5,-205.99 1524.5,-205.99"/>
</g>
<!-- PointsEditorComponent  -->
<g id="node21" class="node">
<title>PointsEditorComponent </title>
<polygon fill="#fb8072" stroke="black" points="1414.34,-252 1259.66,-252 1259.66,-216 1414.34,-216 1414.34,-252"/>
<text text-anchor="middle" x="1337" y="-229.8" font-family="Times,serif" font-size="14.00">PointsEditorComponent </text>
</g>
<!-- AngularCesiumWidgetsModule&#45;&gt;PointsEditorComponent  -->
<g id="edge20" class="edge">
<title>AngularCesiumWidgetsModule&#45;&gt;PointsEditorComponent </title>
<path fill="none" stroke="black" stroke-dasharray="5,2" d="M1430.47,-182C1384.72,-182 1340.1,-182 1340.1,-182 1340.1,-182 1340.1,-205.81 1340.1,-205.81"/>
<polygon fill="black" stroke="black" points="1336.6,-205.81 1340.1,-215.81 1343.6,-205.81 1336.6,-205.81"/>
</g>
<!-- PolygonsEditorComponent  -->
<g id="node22" class="node">
<title>PolygonsEditorComponent </title>
<polygon fill="#fb8072" stroke="black" points="1241.94,-252 1070.06,-252 1070.06,-216 1241.94,-216 1241.94,-252"/>
<text text-anchor="middle" x="1156" y="-229.8" font-family="Times,serif" font-size="14.00">PolygonsEditorComponent </text>
</g>
<!-- AngularCesiumWidgetsModule&#45;&gt;PolygonsEditorComponent  -->
<g id="edge21" class="edge">
<title>AngularCesiumWidgetsModule&#45;&gt;PolygonsEditorComponent </title>
<path fill="none" stroke="black" stroke-dasharray="5,2" d="M1430.57,-179C1313.85,-179 1133.84,-179 1133.84,-179 1133.84,-179 1133.84,-205.99 1133.84,-205.99"/>
<polygon fill="black" stroke="black" points="1130.34,-205.99 1133.84,-215.99 1137.34,-205.99 1130.34,-205.99"/>
</g>
<!-- PolylinesEditorComponent  -->
<g id="node23" class="node">
<title>PolylinesEditorComponent </title>
<polygon fill="#fb8072" stroke="black" points="1051.94,-252 880.06,-252 880.06,-216 1051.94,-216 1051.94,-252"/>
<text text-anchor="middle" x="966" y="-229.8" font-family="Times,serif" font-size="14.00">PolylinesEditorComponent </text>
</g>
<!-- AngularCesiumWidgetsModule&#45;&gt;PolylinesEditorComponent  -->
<g id="edge22" class="edge">
<title>AngularCesiumWidgetsModule&#45;&gt;PolylinesEditorComponent </title>
<path fill="none" stroke="black" stroke-dasharray="5,2" d="M1430.43,-176C1269.49,-176 966,-176 966,-176 966,-176 966,-205.97 966,-205.97"/>
<polygon fill="black" stroke="black" points="962.5,-205.97 966,-215.97 969.5,-205.97 962.5,-205.97"/>
</g>
<!-- RangeAndBearingComponent  -->
<g id="node24" class="node">
<title>RangeAndBearingComponent </title>
<polygon fill="#fb8072" stroke="black" points="862.52,-252 673.48,-252 673.48,-216 862.52,-216 862.52,-252"/>
<text text-anchor="middle" x="768" y="-229.8" font-family="Times,serif" font-size="14.00">RangeAndBearingComponent </text>
</g>
<!-- AngularCesiumWidgetsModule&#45;&gt;RangeAndBearingComponent  -->
<g id="edge23" class="edge">
<title>AngularCesiumWidgetsModule&#45;&gt;RangeAndBearingComponent </title>
<path fill="none" stroke="black" stroke-dasharray="5,2" d="M1430.51,-174C1219.51,-174 739.38,-174 739.38,-174 739.38,-174 739.38,-206 739.38,-206"/>
<polygon fill="black" stroke="black" points="735.88,-206 739.38,-216 742.88,-206 735.88,-206"/>
</g>
<!-- RectanglesEditorComponent  -->
<g id="node25" class="node">
<title>RectanglesEditorComponent </title>
<polygon fill="#fb8072" stroke="black" points="655.75,-252 474.25,-252 474.25,-216 655.75,-216 655.75,-252"/>
<text text-anchor="middle" x="565" y="-229.8" font-family="Times,serif" font-size="14.00">RectanglesEditorComponent </text>
</g>
<!-- AngularCesiumWidgetsModule&#45;&gt;RectanglesEditorComponent  -->
<g id="edge24" class="edge">
<title>AngularCesiumWidgetsModule&#45;&gt;RectanglesEditorComponent </title>
<path fill="none" stroke="black" stroke-dasharray="5,2" d="M1430.47,-171C1184.27,-171 557.14,-171 557.14,-171 557.14,-171 557.14,-205.78 557.14,-205.78"/>
<polygon fill="black" stroke="black" points="553.64,-205.78 557.14,-215.78 560.64,-205.78 553.64,-205.78"/>
</g>
<!-- AngularCesiumModule -->
<g id="node14" class="node">
<title>AngularCesiumModule</title>
<polygon fill="#8dd3c7" stroke="black" points="656.2,-122 653.2,-126 632.2,-126 629.2,-122 507.8,-122 507.8,-86 656.2,-86 656.2,-122"/>
<text text-anchor="middle" x="582" y="-99.8" font-family="Times,serif" font-size="14.00">AngularCesiumModule</text>
</g>
<!-- AngularCesiumModule&#45;&gt;AngularCesiumWidgetsModule -->
<g id="edge13" class="edge">
<title>AngularCesiumModule&#45;&gt;AngularCesiumWidgetsModule</title>
<path fill="none" stroke="black" d="M606.38,-122.02C606.38,-139.37 606.38,-163 606.38,-163 606.38,-163 1420.24,-163 1420.24,-163"/>
<polygon fill="black" stroke="black" points="1420.24,-166.5 1430.24,-163 1420.24,-159.5 1420.24,-166.5"/>
</g>
<!-- DraggableToMapService -->
<g id="node26" class="node">
<title>DraggableToMapService</title>
<ellipse fill="#fdb462" stroke="black" cx="375" cy="-104" rx="108.77" ry="18"/>
<text text-anchor="middle" x="375" y="-99.8" font-family="Times,serif" font-size="14.00">DraggableToMapService</text>
</g>
<!-- DraggableToMapService&#45;&gt;AngularCesiumWidgetsModule -->
<g id="edge25" class="edge">
<title>DraggableToMapService&#45;&gt;AngularCesiumWidgetsModule</title>
<path fill="none" stroke="black" d="M479.01,-109.2C479.01,-123.95 479.01,-165 479.01,-165 479.01,-165 1420.26,-165 1420.26,-165"/>
<polygon fill="black" stroke="black" points="1420.26,-168.5 1430.26,-165 1420.26,-161.5 1420.26,-168.5"/>
</g>
<!-- ZoomToRectangleService -->
<g id="node27" class="node">
<title>ZoomToRectangleService</title>
<ellipse fill="#fdb462" stroke="black" cx="136" cy="-104" rx="112.3" ry="18"/>
<text text-anchor="middle" x="136" y="-99.8" font-family="Times,serif" font-size="14.00">ZoomToRectangleService</text>
</g>
<!-- ZoomToRectangleService&#45;&gt;AngularCesiumWidgetsModule -->
<g id="edge26" class="edge">
<title>ZoomToRectangleService&#45;&gt;AngularCesiumWidgetsModule</title>
<path fill="none" stroke="black" d="M136,-122.17C136,-141.09 136,-168 136,-168 136,-168 1420.39,-168 1420.39,-168"/>
<polygon fill="black" stroke="black" points="1420.39,-171.5 1430.39,-168 1420.39,-164.5 1420.39,-171.5"/>
</g>
</g>
</svg>
